<?xml version="1.0" encoding="UTF-8"?>
<!-- Generator: visioncortex VTracer 0.6.4 -->
<svg version="1.1" xmlns="http://www.w3.org/2000/svg" width="280" height="226">
<path d="M0 0 C92.4 0 184.8 0 280 0 C280 74.58 280 149.16 280 226 C187.6 226 95.2 226 0 226 C0 151.42 0 76.84 0 0 Z " fill="#FEFEFE" transform="translate(0,0)"/>
<path d="M0 0 C3.449802 -0.482302 6.57368 -0.711419 10 0 C12.359379 2.364564 13.702775 4.941279 15 8 C15.33 5.36 15.66 2.72 16 0 C28.54 0 41.08 0 54 0 C54.160811 2.645156 54.321621 5.290312 54.487305 8.015625 C55.237561 20.343994 55.992943 32.672047 56.75 45 C56.817839 46.105482 56.885679 47.210964 56.955574 48.349945 C58.774945 77.98355 60.642243 107.609638 62.881836 137.214844 C62.959129 138.249196 63.036423 139.283547 63.116058 140.349243 C63.255315 142.206174 63.397398 144.062896 63.543365 145.919312 C63.604304 146.730333 63.665242 147.541355 63.728027 148.376953 C63.78099 149.05923 63.833952 149.741506 63.888519 150.444458 C64.056397 154.292825 64 158.147973 64 162 C7.57 162 -48.86 162 -107 162 C-107 154.41 -107 146.82 -107 139 C-109.02125 139.061875 -111.0425 139.12375 -113.125 139.1875 C-125.28097 139.150701 -135.74037 136.708219 -146 130 C-146.605859 129.609414 -147.211719 129.218828 -147.835938 128.816406 C-155.726455 123.028692 -158.440286 113.201102 -160 104 C-161.586968 89.717284 -155.741183 75.968653 -147.25 64.75 C-138.565916 54.512267 -125.885308 46.092716 -113 42 C-112.01 42.33 -111.02 42.66 -110 43 C-111.015781 43.52207 -112.031563 44.044141 -113.078125 44.582031 C-128.754345 52.8703 -143.896659 64.703276 -150.082031 82.03125 C-151.419267 86.924334 -151.368159 91.833346 -151.375 96.875 C-151.399492 97.817305 -151.423984 98.759609 -151.449219 99.730469 C-151.483403 107.968981 -149.313316 115.338988 -143.671875 121.589844 C-131.263873 132.055472 -116.322748 131.967726 -101 131 C-78.246578 128.743368 -56.914127 120.85234 -36 112 C-35.184185 111.657915 -34.368369 111.31583 -33.527832 110.963379 C-18.546646 105.334615 -18.546646 105.334615 -7 95 C-4.304688 94.515625 -4.304688 94.515625 -0.875 94.25 C12.498993 92.590253 27.94787 85.785443 37.25 75.875 C39.249656 73.195041 39.249656 73.195041 38.875 70.4375 C38.441875 69.230938 38.441875 69.230938 38 68 C37.3125 65.3125 37.3125 65.3125 37 63 C37.99 62.01 37.99 62.01 39 61 C39.166773 57.41656 39.166773 57.41656 39 54 C38.01 53.67 37.02 53.34 36 53 C36.33 52.278125 36.66 51.55625 37 50.8125 C38.039341 47.889354 38.3931 46.066178 38 43 C37.195625 42.01 37.195625 42.01 36.375 41 C35.92125 40.34 35.4675 39.68 35 39 C35.8125 36.625 35.8125 36.625 37 34 C37.666667 31 37.666667 31 37 28 C34.397874 24.850059 32.782451 23.329738 28.761719 22.585938 C22.202693 22.355796 16.204243 24.018417 10 26 C9.98582 25.249766 9.971641 24.499531 9.957031 23.726562 C9.546301 14.912519 7.591585 8.076934 1.6875 1.375 C1.130625 0.92125 0.57375 0.4675 0 0 Z " fill="#F7A302" transform="translate(165,54)"/>
<path d="M0 0 C11.440537 7.960082 18.323894 20.494699 21.683594 33.867188 C21.683594 34.527187 21.683594 35.187188 21.683594 35.867188 C19.373594 35.867188 17.063594 35.867188 14.683594 35.867188 C14.548242 35.284531 14.412891 34.701875 14.273438 34.101562 C11.254218 22.603216 5.294974 11.342638 -5.179688 5.183594 C-15.489471 -0.170304 -24.836397 -3.053529 -36.316406 -0.007812 C-47.802871 3.881022 -56.263047 10.922818 -62.128906 21.554688 C-65.65802 29.161358 -67.316406 37.517767 -67.316406 45.867188 C-64.841406 40.917187 -64.841406 40.917187 -62.316406 35.867188 C-44.826406 35.867188 -27.336406 35.867188 -9.316406 35.867188 C-10.966406 37.847187 -12.616406 39.827188 -14.316406 41.867188 C-15.203877 45.648871 -14.540165 49.195911 -13.316406 52.867188 C-11.87678 62.470772 -15.751343 69.825907 -21.203125 77.535156 C-22.422847 79.184466 -23.645397 80.831688 -24.871094 82.476562 C-26.418671 85.036339 -26.821288 86.862719 -27.191406 89.804688 C-27.523193 91.901123 -27.523193 91.901123 -28.316406 93.867188 C-30.072021 94.709229 -30.072021 94.709229 -32.3125 95.246094 C-37.777159 96.848679 -41.863225 99.639113 -46.503906 102.867188 C-65.267548 115.441525 -89.659008 129.839299 -112.816406 130.117188 C-114.75 130.155859 -114.75 130.155859 -116.722656 130.195312 C-120.524336 129.848203 -122.327941 129.184331 -125.316406 126.867188 C-128.012671 122.822791 -128.068594 119.532131 -127.316406 114.867188 C-124.436207 106.544001 -116.637291 92.02763 -108.316406 87.867188 C-109.633884 90.575462 -111.057194 93.162037 -112.628906 95.730469 C-113.064609 96.452988 -113.500313 97.175508 -113.949219 97.919922 C-114.855492 99.417863 -115.766902 100.912709 -116.683594 102.404297 C-120.101713 108.102847 -122.463647 112.87329 -122.128906 119.679688 C-121.624137 123.145385 -121.624137 123.145385 -118.316406 124.867188 C-115.34191 125.109381 -115.34191 125.109381 -112.128906 124.992188 C-111.042227 124.974141 -109.955547 124.956094 -108.835938 124.9375 C-108.004492 124.914297 -107.173047 124.891094 -106.316406 124.867188 C-106.293571 123.899676 -106.270735 122.932164 -106.247208 121.935333 C-106.030739 112.784906 -105.810256 103.634584 -105.585916 94.484346 C-105.470728 89.780951 -105.356918 85.07753 -105.246338 80.374023 C-105.139425 75.82871 -105.028788 71.283501 -104.915648 66.738338 C-104.873279 65.01058 -104.832217 63.282788 -104.792528 61.554966 C-104.736396 59.121341 -104.675476 56.687877 -104.613525 54.254395 C-104.598419 53.551639 -104.583313 52.848883 -104.567749 52.124832 C-104.420433 46.634028 -103.867435 41.377479 -103.316406 35.867188 C-93.416406 35.867188 -83.516406 35.867188 -73.316406 35.867188 C-72.986406 33.227187 -72.656406 30.587187 -72.316406 27.867188 C-71.595459 25.633057 -71.595459 25.633057 -70.75 23.902344 C-70.433777 23.251931 -70.117554 22.601519 -69.791748 21.931396 C-69.44926 21.270833 -69.106772 20.610269 -68.753906 19.929688 C-68.395305 19.232385 -68.036704 18.535083 -67.667236 17.81665 C-60.973677 5.238964 -50.930833 -2.83352 -37.316406 -7.132812 C-24.433328 -10.936133 -10.987232 -6.886665 0 0 Z " fill="#0FA7F2" transform="translate(165.31640625,18.1328125)"/>
<path d="M0 0 C0 3.785324 -1.195536 5.224247 -3.25 8.375 C-4.154922 9.778789 -4.154922 9.778789 -5.078125 11.210938 C-6.948672 13.925512 -8.82148 16.524409 -11 19 C-11.66 19 -12.32 19 -13 19 C-11.472721 14.357072 -8.934092 11.02223 -5.9375 7.25 C-5.477949 6.660898 -5.018398 6.071797 -4.544922 5.464844 C-1.230283 1.230283 -1.230283 1.230283 0 0 Z " fill="#41B8EF" transform="translate(56,106)"/>
</svg>
